<mxfile host="Electron" modified="2023-11-07T04:27:33.359Z" agent="Mozilla/5.0 (Windows NT 10.0; Win64; x64) AppleWebKit/537.36 (KHTML, like Gecko) draw.io/22.0.3 Chrome/114.0.5735.289 Electron/25.8.4 Safari/537.36" etag="gBrsLoKfHsqOXqImBvy9" version="22.0.3" type="device">
  <diagram name="Page-1" id="ECeSDOUD-BR02XVUbhtD">
    <mxGraphModel dx="1766" dy="1242" grid="1" gridSize="10" guides="1" tooltips="1" connect="1" arrows="1" fold="1" page="0" pageScale="1" pageWidth="827" pageHeight="1169" math="0" shadow="0">
      <root>
        <mxCell id="0" />
        <mxCell id="1" parent="0" />
        <mxCell id="Nh7GqE2PTmGViYPouarP-28" value=":ProductListingController" style="shape=umlLifeline;perimeter=lifelinePerimeter;whiteSpace=wrap;html=1;container=1;dropTarget=0;collapsible=0;recursiveResize=0;outlineConnect=0;portConstraint=eastwest;newEdgeStyle={&quot;curved&quot;:0,&quot;rounded&quot;:0};" vertex="1" parent="1">
          <mxGeometry x="400" y="480" width="150" height="140" as="geometry" />
        </mxCell>
        <mxCell id="Nh7GqE2PTmGViYPouarP-97" value="" style="html=1;points=[[0,0,0,0,5],[0,1,0,0,-5],[1,0,0,0,5],[1,1,0,0,-5]];perimeter=orthogonalPerimeter;outlineConnect=0;targetShapes=umlLifeline;portConstraint=eastwest;newEdgeStyle={&quot;curved&quot;:0,&quot;rounded&quot;:0};" vertex="1" parent="Nh7GqE2PTmGViYPouarP-28">
          <mxGeometry x="70" y="70" width="10" height="50" as="geometry" />
        </mxCell>
        <mxCell id="Nh7GqE2PTmGViYPouarP-36" value=":AuthenticationController" style="shape=umlLifeline;perimeter=lifelinePerimeter;whiteSpace=wrap;html=1;container=1;dropTarget=0;collapsible=0;recursiveResize=0;outlineConnect=0;portConstraint=eastwest;newEdgeStyle={&quot;curved&quot;:0,&quot;rounded&quot;:0};" vertex="1" parent="1">
          <mxGeometry x="290" width="160" height="140" as="geometry" />
        </mxCell>
        <mxCell id="Nh7GqE2PTmGViYPouarP-37" value="" style="html=1;points=[[0,0,0,0,5],[0,1,0,0,-5],[1,0,0,0,5],[1,1,0,0,-5]];perimeter=orthogonalPerimeter;outlineConnect=0;targetShapes=umlLifeline;portConstraint=eastwest;newEdgeStyle={&quot;curved&quot;:0,&quot;rounded&quot;:0};" vertex="1" parent="Nh7GqE2PTmGViYPouarP-36">
          <mxGeometry x="75" y="90" width="10" height="30" as="geometry" />
        </mxCell>
        <mxCell id="Nh7GqE2PTmGViYPouarP-39" value="2: validateAccount" style="html=1;verticalAlign=bottom;startArrow=none;endArrow=block;startSize=8;curved=0;rounded=0;startFill=0;" edge="1" parent="1" source="Nh7GqE2PTmGViYPouarP-34" target="Nh7GqE2PTmGViYPouarP-37">
          <mxGeometry x="0.0032" relative="1" as="geometry">
            <mxPoint x="70" y="95" as="sourcePoint" />
            <mxPoint x="220" y="95" as="targetPoint" />
            <mxPoint as="offset" />
            <Array as="points">
              <mxPoint x="310" y="100" />
            </Array>
          </mxGeometry>
        </mxCell>
        <mxCell id="Nh7GqE2PTmGViYPouarP-47" value="1: newListing" style="html=1;verticalAlign=bottom;startArrow=none;endArrow=block;startSize=8;curved=0;rounded=0;startFill=0;" edge="1" parent="1" source="Nh7GqE2PTmGViYPouarP-44" target="Nh7GqE2PTmGViYPouarP-34">
          <mxGeometry x="0.0058" relative="1" as="geometry">
            <mxPoint x="230" y="110" as="sourcePoint" />
            <mxPoint x="410" y="110" as="targetPoint" />
            <mxPoint as="offset" />
            <Array as="points">
              <mxPoint x="140" y="90" />
              <mxPoint x="200" y="90" />
            </Array>
          </mxGeometry>
        </mxCell>
        <mxCell id="Nh7GqE2PTmGViYPouarP-54" value="3: listingDescription ?" style="html=1;verticalAlign=bottom;startArrow=none;endArrow=block;startSize=8;curved=0;rounded=0;startFill=0;" edge="1" parent="1">
          <mxGeometry x="0.037" relative="1" as="geometry">
            <mxPoint x="210" y="200" as="sourcePoint" />
            <mxPoint x="75" y="200" as="targetPoint" />
            <mxPoint as="offset" />
            <Array as="points">
              <mxPoint x="140" y="200" />
            </Array>
          </mxGeometry>
        </mxCell>
        <mxCell id="Nh7GqE2PTmGViYPouarP-56" value="" style="html=1;verticalAlign=bottom;endArrow=open;dashed=1;endSize=8;curved=0;rounded=0;" edge="1" parent="1">
          <mxGeometry relative="1" as="geometry">
            <mxPoint x="75" y="210" as="sourcePoint" />
            <mxPoint x="210" y="210" as="targetPoint" />
            <Array as="points">
              <mxPoint x="140" y="210" />
            </Array>
          </mxGeometry>
        </mxCell>
        <mxCell id="Nh7GqE2PTmGViYPouarP-43" value="seller:User" style="text;html=1;align=center;verticalAlign=middle;resizable=0;points=[];autosize=1;strokeColor=none;fillColor=none;" vertex="1" parent="1">
          <mxGeometry x="30" y="-29.999999999999996" width="80" height="30" as="geometry" />
        </mxCell>
        <mxCell id="Nh7GqE2PTmGViYPouarP-40" value="" style="shape=umlLifeline;perimeter=lifelinePerimeter;whiteSpace=wrap;html=1;container=1;dropTarget=0;collapsible=0;recursiveResize=0;outlineConnect=0;portConstraint=eastwest;newEdgeStyle={&quot;curved&quot;:0,&quot;rounded&quot;:0};participant=umlActor;" vertex="1" parent="1">
          <mxGeometry x="60" y="-0.44" width="20" height="810.44" as="geometry" />
        </mxCell>
        <mxCell id="Nh7GqE2PTmGViYPouarP-44" value="" style="html=1;points=[[0,0,0,0,5],[0,1,0,0,-5],[1,0,0,0,5],[1,1,0,0,-5]];perimeter=orthogonalPerimeter;outlineConnect=0;targetShapes=umlLifeline;portConstraint=eastwest;newEdgeStyle={&quot;curved&quot;:0,&quot;rounded&quot;:0};" vertex="1" parent="Nh7GqE2PTmGViYPouarP-40">
          <mxGeometry x="5" y="60" width="10" height="460" as="geometry" />
        </mxCell>
        <mxCell id="Nh7GqE2PTmGViYPouarP-68" value="" style="html=1;verticalAlign=bottom;endArrow=open;dashed=1;endSize=8;curved=0;rounded=0;" edge="1" parent="1" source="Nh7GqE2PTmGViYPouarP-37" target="Nh7GqE2PTmGViYPouarP-34">
          <mxGeometry relative="1" as="geometry">
            <mxPoint x="85" y="240" as="sourcePoint" />
            <mxPoint x="220" y="240" as="targetPoint" />
            <Array as="points">
              <mxPoint x="310" y="110" />
            </Array>
          </mxGeometry>
        </mxCell>
        <mxCell id="Nh7GqE2PTmGViYPouarP-71" value="" style="group" vertex="1" connectable="0" parent="1">
          <mxGeometry x="160" width="110" height="990" as="geometry" />
        </mxCell>
        <mxCell id="Nh7GqE2PTmGViYPouarP-27" value="createListing:Page" style="shape=umlLifeline;perimeter=lifelinePerimeter;whiteSpace=wrap;html=1;container=1;dropTarget=0;collapsible=0;recursiveResize=0;outlineConnect=0;portConstraint=eastwest;newEdgeStyle={&quot;curved&quot;:0,&quot;rounded&quot;:0};" vertex="1" parent="Nh7GqE2PTmGViYPouarP-71">
          <mxGeometry width="110" height="810" as="geometry" />
        </mxCell>
        <mxCell id="Nh7GqE2PTmGViYPouarP-34" value="" style="html=1;points=[[0,0,0,0,5],[0,1,0,0,-5],[1,0,0,0,5],[1,1,0,0,-5]];perimeter=orthogonalPerimeter;outlineConnect=0;targetShapes=umlLifeline;portConstraint=eastwest;newEdgeStyle={&quot;curved&quot;:0,&quot;rounded&quot;:0};" vertex="1" parent="Nh7GqE2PTmGViYPouarP-27">
          <mxGeometry x="50" y="80" width="10" height="50" as="geometry" />
        </mxCell>
        <mxCell id="Nh7GqE2PTmGViYPouarP-55" value="" style="html=1;points=[[0,0,0,0,5],[0,1,0,0,-5],[1,0,0,0,5],[1,1,0,0,-5]];perimeter=orthogonalPerimeter;outlineConnect=0;targetShapes=umlLifeline;portConstraint=eastwest;newEdgeStyle={&quot;curved&quot;:0,&quot;rounded&quot;:0};" vertex="1" parent="Nh7GqE2PTmGViYPouarP-27">
          <mxGeometry x="50" y="190" width="10" height="70" as="geometry" />
        </mxCell>
        <mxCell id="Nh7GqE2PTmGViYPouarP-118" value="" style="html=1;points=[[0,0,0,0,5],[0,1,0,0,-5],[1,0,0,0,5],[1,1,0,0,-5]];perimeter=orthogonalPerimeter;outlineConnect=0;targetShapes=umlLifeline;portConstraint=eastwest;newEdgeStyle={&quot;curved&quot;:0,&quot;rounded&quot;:0};" vertex="1" parent="Nh7GqE2PTmGViYPouarP-27">
          <mxGeometry x="50" y="710" width="10" height="60" as="geometry" />
        </mxCell>
        <mxCell id="Nh7GqE2PTmGViYPouarP-119" value="" style="html=1;points=[[0,0,0,0,5],[0,1,0,0,-5],[1,0,0,0,5],[1,1,0,0,-5]];perimeter=orthogonalPerimeter;outlineConnect=0;targetShapes=umlLifeline;portConstraint=eastwest;newEdgeStyle={&quot;curved&quot;:0,&quot;rounded&quot;:0};" vertex="1" parent="Nh7GqE2PTmGViYPouarP-27">
          <mxGeometry x="57" y="740" width="10" height="20" as="geometry" />
        </mxCell>
        <mxCell id="Nh7GqE2PTmGViYPouarP-120" value="3: displayError" style="html=1;align=left;spacingLeft=2;endArrow=block;rounded=0;edgeStyle=orthogonalEdgeStyle;curved=0;rounded=0;" edge="1" parent="Nh7GqE2PTmGViYPouarP-27" target="Nh7GqE2PTmGViYPouarP-119">
          <mxGeometry x="-0.9481" y="10" relative="1" as="geometry">
            <mxPoint x="60" y="730" as="sourcePoint" />
            <Array as="points">
              <mxPoint x="92" y="730" />
              <mxPoint x="92" y="750" />
            </Array>
            <mxPoint as="offset" />
          </mxGeometry>
        </mxCell>
        <mxCell id="Nh7GqE2PTmGViYPouarP-57" value="" style="html=1;points=[[0,0,0,0,5],[0,1,0,0,-5],[1,0,0,0,5],[1,1,0,0,-5]];perimeter=orthogonalPerimeter;outlineConnect=0;targetShapes=umlLifeline;portConstraint=eastwest;newEdgeStyle={&quot;curved&quot;:0,&quot;rounded&quot;:0};" vertex="1" parent="Nh7GqE2PTmGViYPouarP-71">
          <mxGeometry x="57" y="230" width="10" height="20" as="geometry" />
        </mxCell>
        <mxCell id="Nh7GqE2PTmGViYPouarP-58" value="4: validateDescription" style="html=1;align=left;spacingLeft=2;endArrow=block;rounded=0;edgeStyle=orthogonalEdgeStyle;curved=0;rounded=0;" edge="1" target="Nh7GqE2PTmGViYPouarP-57" parent="Nh7GqE2PTmGViYPouarP-71">
          <mxGeometry x="-1" y="10" relative="1" as="geometry">
            <mxPoint x="60" y="220" as="sourcePoint" />
            <Array as="points">
              <mxPoint x="92" y="220" />
              <mxPoint x="92" y="240" />
            </Array>
            <mxPoint as="offset" />
          </mxGeometry>
        </mxCell>
        <mxCell id="Nh7GqE2PTmGViYPouarP-70" value="" style="html=1;points=[[0,0,0,0,5],[0,1,0,0,-5],[1,0,0,0,5],[1,1,0,0,-5]];perimeter=orthogonalPerimeter;outlineConnect=0;targetShapes=umlLifeline;portConstraint=eastwest;newEdgeStyle={&quot;curved&quot;:0,&quot;rounded&quot;:0};" vertex="1" parent="Nh7GqE2PTmGViYPouarP-71">
          <mxGeometry x="50" y="280" width="10" height="30" as="geometry" />
        </mxCell>
        <mxCell id="Nh7GqE2PTmGViYPouarP-85" value="" style="html=1;points=[[0,0,0,0,5],[0,1,0,0,-5],[1,0,0,0,5],[1,1,0,0,-5]];perimeter=orthogonalPerimeter;outlineConnect=0;targetShapes=umlLifeline;portConstraint=eastwest;newEdgeStyle={&quot;curved&quot;:0,&quot;rounded&quot;:0};" vertex="1" parent="Nh7GqE2PTmGViYPouarP-71">
          <mxGeometry x="50" y="390" width="10" height="20" as="geometry" />
        </mxCell>
        <mxCell id="Nh7GqE2PTmGViYPouarP-88" value="" style="html=1;points=[[0,0,0,0,5],[0,1,0,0,-5],[1,0,0,0,5],[1,1,0,0,-5]];perimeter=orthogonalPerimeter;outlineConnect=0;targetShapes=umlLifeline;portConstraint=eastwest;newEdgeStyle={&quot;curved&quot;:0,&quot;rounded&quot;:0};" vertex="1" parent="Nh7GqE2PTmGViYPouarP-71">
          <mxGeometry x="50" y="330" width="10" height="30" as="geometry" />
        </mxCell>
        <mxCell id="Nh7GqE2PTmGViYPouarP-92" value="" style="html=1;points=[[0,0,0,0,5],[0,1,0,0,-5],[1,0,0,0,5],[1,1,0,0,-5]];perimeter=orthogonalPerimeter;outlineConnect=0;targetShapes=umlLifeline;portConstraint=eastwest;newEdgeStyle={&quot;curved&quot;:0,&quot;rounded&quot;:0};" vertex="1" parent="Nh7GqE2PTmGViYPouarP-71">
          <mxGeometry x="50" y="430" width="10" height="20" as="geometry" />
        </mxCell>
        <mxCell id="Nh7GqE2PTmGViYPouarP-94" value="" style="html=1;points=[[0,0,0,0,5],[0,1,0,0,-5],[1,0,0,0,5],[1,1,0,0,-5]];perimeter=orthogonalPerimeter;outlineConnect=0;targetShapes=umlLifeline;portConstraint=eastwest;newEdgeStyle={&quot;curved&quot;:0,&quot;rounded&quot;:0};" vertex="1" parent="Nh7GqE2PTmGViYPouarP-71">
          <mxGeometry x="50" y="480" width="10" height="180" as="geometry" />
        </mxCell>
        <mxCell id="Nh7GqE2PTmGViYPouarP-124" value="" style="html=1;points=[[0,0,0,0,5],[0,1,0,0,-5],[1,0,0,0,5],[1,1,0,0,-5]];perimeter=orthogonalPerimeter;outlineConnect=0;targetShapes=umlLifeline;portConstraint=eastwest;newEdgeStyle={&quot;curved&quot;:0,&quot;rounded&quot;:0};" vertex="1" parent="Nh7GqE2PTmGViYPouarP-71">
          <mxGeometry x="57" y="510" width="10" height="20" as="geometry" />
        </mxCell>
        <mxCell id="Nh7GqE2PTmGViYPouarP-125" value="10: validateListingDetails" style="html=1;align=left;spacingLeft=2;endArrow=block;rounded=0;edgeStyle=orthogonalEdgeStyle;curved=0;rounded=0;" edge="1" parent="Nh7GqE2PTmGViYPouarP-71" target="Nh7GqE2PTmGViYPouarP-124">
          <mxGeometry x="-0.9481" y="10" relative="1" as="geometry">
            <mxPoint x="60" y="500" as="sourcePoint" />
            <Array as="points">
              <mxPoint x="92" y="500" />
              <mxPoint x="92" y="520" />
            </Array>
            <mxPoint as="offset" />
          </mxGeometry>
        </mxCell>
        <mxCell id="Nh7GqE2PTmGViYPouarP-128" value="" style="html=1;points=[[0,0,0,0,5],[0,1,0,0,-5],[1,0,0,0,5],[1,1,0,0,-5]];perimeter=orthogonalPerimeter;outlineConnect=0;targetShapes=umlLifeline;portConstraint=eastwest;newEdgeStyle={&quot;curved&quot;:0,&quot;rounded&quot;:0};" vertex="1" parent="Nh7GqE2PTmGViYPouarP-71">
          <mxGeometry x="57" y="630" width="10" height="20" as="geometry" />
        </mxCell>
        <mxCell id="Nh7GqE2PTmGViYPouarP-129" value="14: displayMessage" style="html=1;align=left;spacingLeft=2;endArrow=block;rounded=0;edgeStyle=orthogonalEdgeStyle;curved=0;rounded=0;" edge="1" parent="Nh7GqE2PTmGViYPouarP-71" target="Nh7GqE2PTmGViYPouarP-128">
          <mxGeometry x="-0.9481" y="10" relative="1" as="geometry">
            <mxPoint x="60" y="620" as="sourcePoint" />
            <Array as="points">
              <mxPoint x="92" y="620" />
              <mxPoint x="92" y="640" />
            </Array>
            <mxPoint as="offset" />
          </mxGeometry>
        </mxCell>
        <mxCell id="Nh7GqE2PTmGViYPouarP-72" value="5: startingPrice ?" style="html=1;verticalAlign=bottom;startArrow=none;endArrow=block;startSize=8;curved=0;rounded=0;startFill=0;" edge="1" parent="1" source="Nh7GqE2PTmGViYPouarP-70" target="Nh7GqE2PTmGViYPouarP-44">
          <mxGeometry x="0.037" relative="1" as="geometry">
            <mxPoint x="220" y="210" as="sourcePoint" />
            <mxPoint x="85" y="210" as="targetPoint" />
            <mxPoint as="offset" />
            <Array as="points">
              <mxPoint x="140" y="290" />
            </Array>
          </mxGeometry>
        </mxCell>
        <mxCell id="Nh7GqE2PTmGViYPouarP-73" value="" style="html=1;verticalAlign=bottom;endArrow=open;dashed=1;endSize=8;curved=0;rounded=0;" edge="1" parent="1" source="Nh7GqE2PTmGViYPouarP-44" target="Nh7GqE2PTmGViYPouarP-70">
          <mxGeometry relative="1" as="geometry">
            <mxPoint x="85" y="220" as="sourcePoint" />
            <mxPoint x="220" y="220" as="targetPoint" />
            <Array as="points">
              <mxPoint x="140" y="300" />
            </Array>
          </mxGeometry>
        </mxCell>
        <mxCell id="Nh7GqE2PTmGViYPouarP-84" value="opt" style="shape=umlFrame;whiteSpace=wrap;html=1;pointerEvents=0;" vertex="1" parent="1">
          <mxGeometry y="370" width="240" height="90" as="geometry" />
        </mxCell>
        <mxCell id="Nh7GqE2PTmGViYPouarP-87" value="7: extendListingDuration" style="html=1;verticalAlign=bottom;startArrow=none;endArrow=block;startSize=8;curved=0;rounded=0;startFill=0;" edge="1" parent="1">
          <mxGeometry x="-0.037" relative="1" as="geometry">
            <mxPoint x="75" y="400" as="sourcePoint" />
            <mxPoint x="210" y="400" as="targetPoint" />
            <mxPoint as="offset" />
            <Array as="points">
              <mxPoint x="150" y="400" />
            </Array>
          </mxGeometry>
        </mxCell>
        <mxCell id="Nh7GqE2PTmGViYPouarP-89" value="6: deliveryMethod ?" style="html=1;verticalAlign=bottom;startArrow=none;endArrow=block;startSize=8;curved=0;rounded=0;startFill=0;" edge="1" parent="1" source="Nh7GqE2PTmGViYPouarP-88" target="Nh7GqE2PTmGViYPouarP-44">
          <mxGeometry x="0.037" relative="1" as="geometry">
            <mxPoint x="220" y="300" as="sourcePoint" />
            <mxPoint x="85" y="300" as="targetPoint" />
            <mxPoint as="offset" />
            <Array as="points">
              <mxPoint x="150" y="340" />
            </Array>
          </mxGeometry>
        </mxCell>
        <mxCell id="Nh7GqE2PTmGViYPouarP-90" value="" style="html=1;verticalAlign=bottom;endArrow=open;dashed=1;endSize=8;curved=0;rounded=0;" edge="1" parent="1" source="Nh7GqE2PTmGViYPouarP-44" target="Nh7GqE2PTmGViYPouarP-88">
          <mxGeometry relative="1" as="geometry">
            <mxPoint x="85" y="310" as="sourcePoint" />
            <mxPoint x="220" y="310" as="targetPoint" />
            <Array as="points">
              <mxPoint x="150" y="350" />
            </Array>
          </mxGeometry>
        </mxCell>
        <mxCell id="Nh7GqE2PTmGViYPouarP-93" value="8: setMinimum&lt;br&gt;SellingPrice" style="html=1;verticalAlign=bottom;startArrow=none;endArrow=block;startSize=8;curved=0;rounded=0;startFill=0;" edge="1" parent="1">
          <mxGeometry x="-0.037" relative="1" as="geometry">
            <mxPoint x="75" y="440" as="sourcePoint" />
            <mxPoint x="210" y="440" as="targetPoint" />
            <mxPoint as="offset" />
            <Array as="points">
              <mxPoint x="150" y="440" />
            </Array>
          </mxGeometry>
        </mxCell>
        <mxCell id="Nh7GqE2PTmGViYPouarP-96" value="9: publishListing" style="html=1;verticalAlign=bottom;startArrow=none;endArrow=block;startSize=8;curved=0;rounded=0;startFill=0;" edge="1" parent="1" source="Nh7GqE2PTmGViYPouarP-44" target="Nh7GqE2PTmGViYPouarP-94">
          <mxGeometry x="-0.037" relative="1" as="geometry">
            <mxPoint x="85" y="450" as="sourcePoint" />
            <mxPoint x="220" y="450" as="targetPoint" />
            <mxPoint as="offset" />
            <Array as="points">
              <mxPoint x="150" y="490" />
            </Array>
          </mxGeometry>
        </mxCell>
        <mxCell id="Nh7GqE2PTmGViYPouarP-98" value="11: listingDetails" style="html=1;verticalAlign=bottom;startArrow=none;endArrow=block;startSize=8;curved=0;rounded=0;startFill=0;" edge="1" parent="1" target="Nh7GqE2PTmGViYPouarP-97">
          <mxGeometry x="-0.0348" relative="1" as="geometry">
            <mxPoint x="220" y="560" as="sourcePoint" />
            <mxPoint x="390" y="560" as="targetPoint" />
            <mxPoint as="offset" />
            <Array as="points">
              <mxPoint x="310" y="560" />
            </Array>
          </mxGeometry>
        </mxCell>
        <mxCell id="Nh7GqE2PTmGViYPouarP-110" value="12: updateDatabase" style="html=1;verticalAlign=bottom;startArrow=none;endArrow=block;startSize=8;curved=0;rounded=0;startFill=0;" edge="1" parent="1">
          <mxGeometry x="-0.0389" relative="1" as="geometry">
            <mxPoint x="480" y="570" as="sourcePoint" />
            <mxPoint x="625" y="570" as="targetPoint" />
            <mxPoint as="offset" />
            <Array as="points">
              <mxPoint x="560" y="570" />
            </Array>
          </mxGeometry>
        </mxCell>
        <mxCell id="Nh7GqE2PTmGViYPouarP-112" value="" style="html=1;verticalAlign=bottom;endArrow=open;dashed=1;endSize=8;curved=0;rounded=0;" edge="1" parent="1">
          <mxGeometry relative="1" as="geometry">
            <mxPoint x="625" y="580" as="sourcePoint" />
            <mxPoint x="480" y="580" as="targetPoint" />
            <Array as="points">
              <mxPoint x="560" y="580" />
            </Array>
          </mxGeometry>
        </mxCell>
        <mxCell id="Nh7GqE2PTmGViYPouarP-115" value="13: listingPublished" style="html=1;verticalAlign=bottom;endArrow=open;dashed=1;endSize=8;curved=0;rounded=0;" edge="1" parent="1" source="Nh7GqE2PTmGViYPouarP-97">
          <mxGeometry x="-0.0034" relative="1" as="geometry">
            <mxPoint x="390" y="590" as="sourcePoint" />
            <mxPoint x="220" y="590" as="targetPoint" />
            <Array as="points">
              <mxPoint x="320" y="590" />
            </Array>
            <mxPoint as="offset" />
          </mxGeometry>
        </mxCell>
        <mxCell id="Nh7GqE2PTmGViYPouarP-116" value="" style="line;strokeWidth=1;fillColor=none;align=left;verticalAlign=middle;spacingTop=-1;spacingLeft=3;spacingRight=3;rotatable=0;labelPosition=right;points=[];portConstraint=eastwest;strokeColor=inherit;dashed=1;" vertex="1" parent="1">
          <mxGeometry x="-80" y="680" width="760" height="8" as="geometry" />
        </mxCell>
        <mxCell id="Nh7GqE2PTmGViYPouarP-127" value="[invalid listing details]" style="text;html=1;align=center;verticalAlign=middle;resizable=0;points=[];autosize=1;strokeColor=none;fillColor=none;" vertex="1" parent="1">
          <mxGeometry x="-63" y="293" width="140" height="30" as="geometry" />
        </mxCell>
        <mxCell id="Nh7GqE2PTmGViYPouarP-51" value="[valid account]" style="text;html=1;align=left;verticalAlign=middle;resizable=0;points=[];autosize=1;strokeColor=none;fillColor=none;" vertex="1" parent="1">
          <mxGeometry x="-20.00142857142857" y="140" width="100" height="30" as="geometry" />
        </mxCell>
        <mxCell id="Nh7GqE2PTmGViYPouarP-50" value="alt" style="shape=umlFrame;whiteSpace=wrap;html=1;pointerEvents=0;movable=1;resizable=1;rotatable=1;deletable=1;editable=1;locked=0;connectable=1;fillColor=none;" vertex="1" parent="1">
          <mxGeometry x="-80" y="140" width="760" height="650" as="geometry" />
        </mxCell>
        <mxCell id="Nh7GqE2PTmGViYPouarP-69" value="" style="group" vertex="1" connectable="0" parent="1">
          <mxGeometry x="-51.05" y="178.86" width="411.05" height="87.43" as="geometry" />
        </mxCell>
        <mxCell id="Nh7GqE2PTmGViYPouarP-59" value="loop" style="shape=umlFrame;whiteSpace=wrap;html=1;pointerEvents=0;movable=1;resizable=1;rotatable=1;deletable=1;editable=1;locked=0;connectable=1;" vertex="1" parent="Nh7GqE2PTmGViYPouarP-69">
          <mxGeometry width="411.05" height="87.43" as="geometry" />
        </mxCell>
        <mxCell id="Nh7GqE2PTmGViYPouarP-60" value="[invalid description]" style="text;html=1;align=left;verticalAlign=middle;resizable=0;points=[];autosize=1;strokeColor=none;fillColor=none;" vertex="1" parent="Nh7GqE2PTmGViYPouarP-69">
          <mxGeometry y="23.84454545454546" width="130" height="30" as="geometry" />
        </mxCell>
        <mxCell id="Nh7GqE2PTmGViYPouarP-117" value="[invalid account]" style="text;html=1;align=left;verticalAlign=middle;resizable=0;points=[];autosize=1;strokeColor=none;fillColor=none;" vertex="1" parent="1">
          <mxGeometry x="-80.00142857142856" y="700.0034146341463" width="110" height="30" as="geometry" />
        </mxCell>
        <mxCell id="Nh7GqE2PTmGViYPouarP-122" value=":Database" style="shape=umlLifeline;perimeter=lifelinePerimeter;whiteSpace=wrap;html=1;container=0;dropTarget=0;collapsible=0;recursiveResize=0;outlineConnect=0;portConstraint=eastwest;newEdgeStyle={&quot;curved&quot;:0,&quot;rounded&quot;:0};" vertex="1" parent="1">
          <mxGeometry x="590" y="480" width="80" height="140" as="geometry" />
        </mxCell>
        <mxCell id="Nh7GqE2PTmGViYPouarP-123" value="" style="html=1;points=[[0,0,0,0,5],[0,1,0,0,-5],[1,0,0,0,5],[1,1,0,0,-5]];perimeter=orthogonalPerimeter;outlineConnect=0;targetShapes=umlLifeline;portConstraint=eastwest;newEdgeStyle={&quot;curved&quot;:0,&quot;rounded&quot;:0};" vertex="1" parent="Nh7GqE2PTmGViYPouarP-122">
          <mxGeometry x="35" y="80" width="10" height="30" as="geometry" />
        </mxCell>
        <mxCell id="Nh7GqE2PTmGViYPouarP-126" value="loop" style="shape=umlFrame;whiteSpace=wrap;html=1;pointerEvents=0;" vertex="1" parent="1">
          <mxGeometry x="-50" y="270" width="410" height="270" as="geometry" />
        </mxCell>
      </root>
    </mxGraphModel>
  </diagram>
</mxfile>
